<svg aria-roledescription="er" viewBox="0 0 465.109375 298" style="max-width: 465.109px; background-color: white;" xmlns:xlink="http://www.w3.org/1999/xlink" xmlns="http://www.w3.org/2000/svg" width="100%" id="mermaid-0"><style>#mermaid-0{font-family:"trebuchet ms",verdana,arial,sans-serif;font-size:16px;fill:#000000;}#mermaid-0 .error-icon{fill:#552222;}#mermaid-0 .error-text{fill:#552222;stroke:#552222;}#mermaid-0 .edge-thickness-normal{stroke-width:2px;}#mermaid-0 .edge-thickness-thick{stroke-width:3.5px;}#mermaid-0 .edge-pattern-solid{stroke-dasharray:0;}#mermaid-0 .edge-pattern-dashed{stroke-dasharray:3;}#mermaid-0 .edge-pattern-dotted{stroke-dasharray:2;}#mermaid-0 .marker{fill:#000000;stroke:#000000;}#mermaid-0 .marker.cross{stroke:#000000;}#mermaid-0 svg{font-family:"trebuchet ms",verdana,arial,sans-serif;font-size:16px;}#mermaid-0 .entityBox{fill:#cde498;stroke:#13540c;}#mermaid-0 .attributeBoxOdd{fill:#ffffff;stroke:#13540c;}#mermaid-0 .attributeBoxEven{fill:#f2f2f2;stroke:#13540c;}#mermaid-0 .relationshipLabelBox{fill:hsl(78.1578947368, 58.4615384615%, 84.5098039216%);opacity:0.7;background-color:hsl(78.1578947368, 58.4615384615%, 84.5098039216%);}#mermaid-0 .relationshipLabelBox rect{opacity:0.5;}#mermaid-0 .relationshipLine{stroke:#000000;}#mermaid-0 .entityTitleText{text-anchor:middle;font-size:18px;fill:#000000;}#mermaid-0 :root{--mermaid-font-family:"trebuchet ms",verdana,arial,sans-serif;}</style><g/><defs><marker orient="auto" markerHeight="18" markerWidth="18" refY="9" refX="0" id="ONLY_ONE_START"><path d="M9,0 L9,18 M15,0 L15,18" fill="none" stroke="gray"/></marker></defs><defs><marker orient="auto" markerHeight="18" markerWidth="18" refY="9" refX="18" id="ONLY_ONE_END"><path d="M3,0 L3,18 M9,0 L9,18" fill="none" stroke="gray"/></marker></defs><defs><marker orient="auto" markerHeight="18" markerWidth="30" refY="9" refX="0" id="ZERO_OR_ONE_START"><circle r="6" cy="9" cx="21" fill="white" stroke="gray"/><path d="M9,0 L9,18" fill="none" stroke="gray"/></marker></defs><defs><marker orient="auto" markerHeight="18" markerWidth="30" refY="9" refX="30" id="ZERO_OR_ONE_END"><circle r="6" cy="9" cx="9" fill="white" stroke="gray"/><path d="M21,0 L21,18" fill="none" stroke="gray"/></marker></defs><defs><marker orient="auto" markerHeight="36" markerWidth="45" refY="18" refX="18" id="ONE_OR_MORE_START"><path d="M0,18 Q 18,0 36,18 Q 18,36 0,18 M42,9 L42,27" fill="none" stroke="gray"/></marker></defs><defs><marker orient="auto" markerHeight="36" markerWidth="45" refY="18" refX="27" id="ONE_OR_MORE_END"><path d="M3,9 L3,27 M9,18 Q27,0 45,18 Q27,36 9,18" fill="none" stroke="gray"/></marker></defs><defs><marker orient="auto" markerHeight="36" markerWidth="57" refY="18" refX="18" id="ZERO_OR_MORE_START"><circle r="6" cy="18" cx="48" fill="white" stroke="gray"/><path d="M0,18 Q18,0 36,18 Q18,36 0,18" fill="none" stroke="gray"/></marker></defs><defs><marker orient="auto" markerHeight="36" markerWidth="57" refY="18" refX="39" id="ZERO_OR_MORE_END"><circle r="6" cy="18" cx="9" fill="white" stroke="gray"/><path d="M21,18 Q39,0 57,18 Q39,36 21,18" fill="none" stroke="gray"/></marker></defs><path style="stroke: gray; fill: none;" marker-start="url(#ZERO_OR_MORE_START)" marker-end="url(#ONLY_ONE_END)" d="M77.9296875,88L77.9296875,96.33333333333333C77.9296875,104.66666666666667,77.9296875,121.33333333333333,82.3156524122807,138C86.70161732456141,154.66666666666666,95.47354714912281,171.33333333333334,99.8595120614035,179.66666666666666L104.2454769736842,188" class="er relationshipLine"/><path style="stroke: gray; fill: none;" marker-start="url(#ZERO_OR_MORE_START)" marker-end="url(#ONLY_ONE_END)" d="M355.8584449404762,77L361.91003224206344,87.16666666666667C367.9616195436508,97.33333333333333,380.06479414682536,117.66666666666667,386.1163814484127,138C392.16796875,158.33333333333334,392.16796875,178.66666666666666,392.16796875,188.83333333333334L392.16796875,199" class="er relationshipLine"/><path style="stroke: gray; fill: none;" marker-start="url(#ZERO_OR_MORE_START)" marker-end="url(#ONLY_ONE_END)" d="M311.9740513392857,77L298.62746465773813,87.16666666666667C285.2808779761905,97.33333333333333,258.58770461309524,117.66666666666667,236.1213947955827,136.16666666666666C213.65508497807016,154.66666666666666,195.41563870614036,171.33333333333334,186.29591557017542,179.66666666666666L177.17619243421052,188" class="er relationshipLine"/><g transform="translate(60.32421875,188 )" id="entity-habits-2ab89d2e-30ab-4c9b-afe0-c0364b2934c7"><rect height="90" width="135.2109375" y="0" x="0" class="er entityBox"/><text style="dominant-baseline: middle; text-anchor: middle; font-size: 12px;" transform="translate(67.60546875,12)" y="0" x="0" id="text-entity-habits-2ab89d2e-30ab-4c9b-afe0-c0364b2934c7" class="er entityLabel">habits</text><rect height="22" width="53.6640625" y="24" x="0" class="er attributeBoxOdd"/><text style="dominant-baseline: middle; font-size: 10.2px;" transform="translate(5,35)" y="0" x="0" id="text-entity-habits-2ab89d2e-30ab-4c9b-afe0-c0364b2934c7-attr-1-type" class="er entityLabel">String</text><rect height="22" width="59.984375" y="24" x="53.6640625" class="er attributeBoxOdd"/><text style="dominant-baseline: middle; font-size: 10.2px;" transform="translate(58.6640625,35)" y="0" x="0" id="text-entity-habits-2ab89d2e-30ab-4c9b-afe0-c0364b2934c7-attr-1-name" class="er entityLabel">id</text><rect height="22" width="21.5625" y="24" x="113.6484375" class="er attributeBoxOdd"/><text style="dominant-baseline: middle; font-size: 10.2px;" transform="translate(118.6484375,35)" y="0" x="0" id="text-entity-habits-2ab89d2e-30ab-4c9b-afe0-c0364b2934c7-attr-1-key" class="er entityLabel">PK</text><rect height="22" width="53.6640625" y="46" x="0" class="er attributeBoxEven"/><text style="dominant-baseline: middle; font-size: 10.2px;" transform="translate(5,57)" y="0" x="0" id="text-entity-habits-2ab89d2e-30ab-4c9b-afe0-c0364b2934c7-attr-2-type" class="er entityLabel">String</text><rect height="22" width="59.984375" y="46" x="53.6640625" class="er attributeBoxEven"/><text style="dominant-baseline: middle; font-size: 10.2px;" transform="translate(58.6640625,57)" y="0" x="0" id="text-entity-habits-2ab89d2e-30ab-4c9b-afe0-c0364b2934c7-attr-2-name" class="er entityLabel">title</text><rect height="22" width="21.5625" y="46" x="113.6484375" class="er attributeBoxEven"/><text style="dominant-baseline: middle; font-size: 10.2px;" transform="translate(118.6484375,57)" y="0" x="0" id="text-entity-habits-2ab89d2e-30ab-4c9b-afe0-c0364b2934c7-attr-2-key" class="er entityLabel"/><rect height="22" width="53.6640625" y="68" x="0" class="er attributeBoxOdd"/><text style="dominant-baseline: middle; font-size: 10.2px;" transform="translate(5,79)" y="0" x="0" id="text-entity-habits-2ab89d2e-30ab-4c9b-afe0-c0364b2934c7-attr-3-type" class="er entityLabel">DateTime</text><rect height="22" width="59.984375" y="68" x="53.6640625" class="er attributeBoxOdd"/><text style="dominant-baseline: middle; font-size: 10.2px;" transform="translate(58.6640625,79)" y="0" x="0" id="text-entity-habits-2ab89d2e-30ab-4c9b-afe0-c0364b2934c7-attr-3-name" class="er entityLabel">created_at</text><rect height="22" width="21.5625" y="68" x="113.6484375" class="er attributeBoxOdd"/><text style="dominant-baseline: middle; font-size: 10.2px;" transform="translate(118.6484375,79)" y="0" x="0" id="text-entity-habits-2ab89d2e-30ab-4c9b-afe0-c0364b2934c7-attr-3-key" class="er entityLabel"/></g><g transform="translate(20,20 )" id="entity-habitweekdays-bb7127fc-6d5f-4cd8-a6f5-24b1ef9ec4e3"><rect height="68" width="115.859375" y="0" x="0" class="er entityBox"/><text style="dominant-baseline: middle; text-anchor: middle; font-size: 12px;" transform="translate(57.9296875,12)" y="0" x="0" id="text-entity-habitweekdays-bb7127fc-6d5f-4cd8-a6f5-24b1ef9ec4e3" class="er entityLabel">habit_weekdays</text><rect height="22" width="39.135416666666664" y="24" x="0" class="er attributeBoxOdd"/><text style="dominant-baseline: middle; font-size: 10.2px;" transform="translate(5,35)" y="0" x="0" id="text-entity-habitweekdays-bb7127fc-6d5f-4cd8-a6f5-24b1ef9ec4e3-attr-1-type" class="er entityLabel">String</text><rect height="22" width="52.549479166666664" y="24" x="39.135416666666664" class="er attributeBoxOdd"/><text style="dominant-baseline: middle; font-size: 10.2px;" transform="translate(44.135416666666664,35)" y="0" x="0" id="text-entity-habitweekdays-bb7127fc-6d5f-4cd8-a6f5-24b1ef9ec4e3-attr-1-name" class="er entityLabel">id</text><rect height="22" width="24.174479166666668" y="24" x="91.68489583333333" class="er attributeBoxOdd"/><text style="dominant-baseline: middle; font-size: 10.2px;" transform="translate(96.68489583333333,35)" y="0" x="0" id="text-entity-habitweekdays-bb7127fc-6d5f-4cd8-a6f5-24b1ef9ec4e3-attr-1-key" class="er entityLabel">PK</text><rect height="22" width="39.135416666666664" y="46" x="0" class="er attributeBoxEven"/><text style="dominant-baseline: middle; font-size: 10.2px;" transform="translate(5,57)" y="0" x="0" id="text-entity-habitweekdays-bb7127fc-6d5f-4cd8-a6f5-24b1ef9ec4e3-attr-2-type" class="er entityLabel">Int</text><rect height="22" width="52.549479166666664" y="46" x="39.135416666666664" class="er attributeBoxEven"/><text style="dominant-baseline: middle; font-size: 10.2px;" transform="translate(44.135416666666664,57)" y="0" x="0" id="text-entity-habitweekdays-bb7127fc-6d5f-4cd8-a6f5-24b1ef9ec4e3-attr-2-name" class="er entityLabel">weekday</text><rect height="22" width="24.174479166666668" y="46" x="91.68489583333333" class="er attributeBoxEven"/><text style="dominant-baseline: middle; font-size: 10.2px;" transform="translate(96.68489583333333,57)" y="0" x="0" id="text-entity-habitweekdays-bb7127fc-6d5f-4cd8-a6f5-24b1ef9ec4e3-attr-2-key" class="er entityLabel"/></g><g transform="translate(339.2265625,199 )" id="entity-days-6c5510a2-e8ea-48fd-aa26-6238482cad13"><rect height="68" width="105.8828125" y="0" x="0" class="er entityBox"/><text style="dominant-baseline: middle; text-anchor: middle; font-size: 12px;" transform="translate(52.94140625,12)" y="0" x="0" id="text-entity-days-6c5510a2-e8ea-48fd-aa26-6238482cad13" class="er entityLabel">days</text><rect height="22" width="53.6640625" y="24" x="0" class="er attributeBoxOdd"/><text style="dominant-baseline: middle; font-size: 10.2px;" transform="translate(5,35)" y="0" x="0" id="text-entity-days-6c5510a2-e8ea-48fd-aa26-6238482cad13-attr-1-type" class="er entityLabel">String</text><rect height="22" width="30.65625" y="24" x="53.6640625" class="er attributeBoxOdd"/><text style="dominant-baseline: middle; font-size: 10.2px;" transform="translate(58.6640625,35)" y="0" x="0" id="text-entity-days-6c5510a2-e8ea-48fd-aa26-6238482cad13-attr-1-name" class="er entityLabel">id</text><rect height="22" width="21.5625" y="24" x="84.3203125" class="er attributeBoxOdd"/><text style="dominant-baseline: middle; font-size: 10.2px;" transform="translate(89.3203125,35)" y="0" x="0" id="text-entity-days-6c5510a2-e8ea-48fd-aa26-6238482cad13-attr-1-key" class="er entityLabel">PK</text><rect height="22" width="53.6640625" y="46" x="0" class="er attributeBoxEven"/><text style="dominant-baseline: middle; font-size: 10.2px;" transform="translate(5,57)" y="0" x="0" id="text-entity-days-6c5510a2-e8ea-48fd-aa26-6238482cad13-attr-2-type" class="er entityLabel">DateTime</text><rect height="22" width="30.65625" y="46" x="53.6640625" class="er attributeBoxEven"/><text style="dominant-baseline: middle; font-size: 10.2px;" transform="translate(58.6640625,57)" y="0" x="0" id="text-entity-days-6c5510a2-e8ea-48fd-aa26-6238482cad13-attr-2-name" class="er entityLabel">date</text><rect height="22" width="21.5625" y="46" x="84.3203125" class="er attributeBoxEven"/><text style="dominant-baseline: middle; font-size: 10.2px;" transform="translate(89.3203125,57)" y="0" x="0" id="text-entity-days-6c5510a2-e8ea-48fd-aa26-6238482cad13-attr-2-key" class="er entityLabel"/></g><g transform="translate(292.16796875,31 )" id="entity-dayhabits-5ce9e5e2-763c-4599-ba0f-6d6b31f3d6d9"><rect height="46" width="100" y="0" x="0" class="er entityBox"/><text style="dominant-baseline: middle; text-anchor: middle; font-size: 12px;" transform="translate(50,12)" y="0" x="0" id="text-entity-dayhabits-5ce9e5e2-763c-4599-ba0f-6d6b31f3d6d9" class="er entityLabel">day_habits</text><rect height="22" width="44.296875" y="24" x="0" class="er attributeBoxOdd"/><text style="dominant-baseline: middle; font-size: 10.2px;" transform="translate(5,35)" y="0" x="0" id="text-entity-dayhabits-5ce9e5e2-763c-4599-ba0f-6d6b31f3d6d9-attr-1-type" class="er entityLabel">String</text><rect height="22" width="26.3671875" y="24" x="44.296875" class="er attributeBoxOdd"/><text style="dominant-baseline: middle; font-size: 10.2px;" transform="translate(49.296875,35)" y="0" x="0" id="text-entity-dayhabits-5ce9e5e2-763c-4599-ba0f-6d6b31f3d6d9-attr-1-name" class="er entityLabel">id</text><rect height="22" width="29.3359375" y="24" x="70.6640625" class="er attributeBoxOdd"/><text style="dominant-baseline: middle; font-size: 10.2px;" transform="translate(75.6640625,35)" y="0" x="0" id="text-entity-dayhabits-5ce9e5e2-763c-4599-ba0f-6d6b31f3d6d9-attr-1-key" class="er entityLabel">PK</text></g><rect height="14" width="27.7265625" y="133.108642578125" x="69.0303726196289" class="er relationshipLabelBox"/><text style="text-anchor: middle; dominant-baseline: middle; font-size: 12px;" y="140.108642578125" x="82.8936538696289" id="rel1" class="er relationshipLabel">habit</text><rect height="14" width="18.9140625" y="127.78831481933594" x="375.654296875" class="er relationshipLabelBox"/><text style="text-anchor: middle; dominant-baseline: middle; font-size: 12px;" y="134.78831481933594" x="385.111328125" id="rel2" class="er relationshipLabel">day</text><rect height="14" width="27.7265625" y="123.56900024414062" x="229.11378479003906" class="er relationshipLabelBox"/><text style="text-anchor: middle; dominant-baseline: middle; font-size: 12px;" y="130.56900024414062" x="242.97706604003906" id="rel3" class="er relationshipLabel">habit</text></svg>